<mxfile host="app.diagrams.net" modified="2024-03-16T13:49:04.405Z" agent="Mozilla/5.0 (Windows NT 10.0; Win64; x64) AppleWebKit/537.36 (KHTML, like Gecko) Chrome/122.0.0.0 Safari/537.36" etag="IbYEWrlszNknki038pjv" version="24.0.7" type="device">
  <diagram name="PÃ¡gina-1" id="4tVZ33dEEce_6mLnsqYj">
    <mxGraphModel dx="1434" dy="746" grid="1" gridSize="10" guides="1" tooltips="1" connect="1" arrows="1" fold="1" page="1" pageScale="1" pageWidth="1169" pageHeight="827" math="0" shadow="0">
      <root>
        <mxCell id="0" />
        <mxCell id="1" parent="0" />
        <mxCell id="SySOI2_HgFE6P1grrO_B-1" value="PRODUTO" style="whiteSpace=wrap;html=1;align=center;" vertex="1" parent="1">
          <mxGeometry x="70" y="150" width="100" height="40" as="geometry" />
        </mxCell>
        <mxCell id="SySOI2_HgFE6P1grrO_B-2" value="VENDA" style="whiteSpace=wrap;html=1;align=center;" vertex="1" parent="1">
          <mxGeometry x="600" y="160" width="100" height="40" as="geometry" />
        </mxCell>
        <mxCell id="SySOI2_HgFE6P1grrO_B-3" value="CLIENTE" style="whiteSpace=wrap;html=1;align=center;" vertex="1" parent="1">
          <mxGeometry x="600" y="380" width="100" height="40" as="geometry" />
        </mxCell>
        <mxCell id="SySOI2_HgFE6P1grrO_B-6" value="" style="endArrow=none;html=1;rounded=0;exitX=0.5;exitY=0;exitDx=0;exitDy=0;exitPerimeter=0;" edge="1" parent="1" source="SySOI2_HgFE6P1grrO_B-1">
          <mxGeometry width="50" height="50" relative="1" as="geometry">
            <mxPoint x="50" y="130" as="sourcePoint" />
            <mxPoint x="100" y="80" as="targetPoint" />
          </mxGeometry>
        </mxCell>
        <mxCell id="SySOI2_HgFE6P1grrO_B-9" value="" style="endArrow=none;html=1;rounded=0;exitX=0.67;exitY=0;exitDx=0;exitDy=0;exitPerimeter=0;" edge="1" parent="1" source="SySOI2_HgFE6P1grrO_B-2">
          <mxGeometry width="50" height="50" relative="1" as="geometry">
            <mxPoint x="670" y="140" as="sourcePoint" />
            <mxPoint x="720" y="90" as="targetPoint" />
          </mxGeometry>
        </mxCell>
        <mxCell id="SySOI2_HgFE6P1grrO_B-11" value="" style="endArrow=none;html=1;rounded=0;" edge="1" parent="1">
          <mxGeometry width="50" height="50" relative="1" as="geometry">
            <mxPoint x="670" y="380" as="sourcePoint" />
            <mxPoint x="720" y="330" as="targetPoint" />
          </mxGeometry>
        </mxCell>
        <mxCell id="SySOI2_HgFE6P1grrO_B-12" value="nome_produto" style="ellipse;whiteSpace=wrap;html=1;align=center;" vertex="1" parent="1">
          <mxGeometry x="140" y="70" width="100" height="40" as="geometry" />
        </mxCell>
        <mxCell id="SySOI2_HgFE6P1grrO_B-13" value="" style="endArrow=none;html=1;rounded=0;" edge="1" parent="1">
          <mxGeometry width="50" height="50" relative="1" as="geometry">
            <mxPoint x="140" y="150" as="sourcePoint" />
            <mxPoint x="180" y="110" as="targetPoint" />
          </mxGeometry>
        </mxCell>
        <mxCell id="SySOI2_HgFE6P1grrO_B-15" value="telefone" style="ellipse;shape=doubleEllipse;margin=3;whiteSpace=wrap;html=1;align=center;" vertex="1" parent="1">
          <mxGeometry x="580" y="300" width="100" height="40" as="geometry" />
        </mxCell>
        <mxCell id="SySOI2_HgFE6P1grrO_B-16" value="" style="endArrow=none;html=1;rounded=0;exitX=0.15;exitY=-0.125;exitDx=0;exitDy=0;exitPerimeter=0;" edge="1" parent="1" source="SySOI2_HgFE6P1grrO_B-3">
          <mxGeometry width="50" height="50" relative="1" as="geometry">
            <mxPoint x="560" y="390" as="sourcePoint" />
            <mxPoint x="610" y="340" as="targetPoint" />
          </mxGeometry>
        </mxCell>
        <mxCell id="SySOI2_HgFE6P1grrO_B-17" value="valor_produto" style="ellipse;whiteSpace=wrap;html=1;align=center;" vertex="1" parent="1">
          <mxGeometry x="60" y="250" width="100" height="40" as="geometry" />
        </mxCell>
        <mxCell id="SySOI2_HgFE6P1grrO_B-19" value="valor_venda" style="ellipse;whiteSpace=wrap;html=1;align=center;" vertex="1" parent="1">
          <mxGeometry x="560" y="70" width="100" height="40" as="geometry" />
        </mxCell>
        <mxCell id="SySOI2_HgFE6P1grrO_B-20" value="" style="endArrow=none;html=1;rounded=0;exitX=0.25;exitY=0;exitDx=0;exitDy=0;" edge="1" parent="1" source="SySOI2_HgFE6P1grrO_B-2">
          <mxGeometry width="50" height="50" relative="1" as="geometry">
            <mxPoint x="560" y="160" as="sourcePoint" />
            <mxPoint x="610" y="110" as="targetPoint" />
          </mxGeometry>
        </mxCell>
        <mxCell id="SySOI2_HgFE6P1grrO_B-23" value="data" style="ellipse;whiteSpace=wrap;html=1;align=center;fontStyle=4;" vertex="1" parent="1">
          <mxGeometry x="670" y="50" width="100" height="40" as="geometry" />
        </mxCell>
        <mxCell id="SySOI2_HgFE6P1grrO_B-24" value="codigo" style="ellipse;whiteSpace=wrap;html=1;align=center;fontStyle=4;" vertex="1" parent="1">
          <mxGeometry x="60" y="40" width="100" height="40" as="geometry" />
        </mxCell>
        <mxCell id="SySOI2_HgFE6P1grrO_B-25" value="codigo_cliente" style="ellipse;whiteSpace=wrap;html=1;align=center;fontStyle=4;" vertex="1" parent="1">
          <mxGeometry x="690" y="290" width="100" height="40" as="geometry" />
        </mxCell>
        <mxCell id="SySOI2_HgFE6P1grrO_B-26" value="VENDIDO" style="shape=associativeEntity;whiteSpace=wrap;html=1;align=center;" vertex="1" parent="1">
          <mxGeometry x="380" y="140" width="140" height="60" as="geometry" />
        </mxCell>
        <mxCell id="SySOI2_HgFE6P1grrO_B-28" value="" style="endArrow=none;html=1;rounded=0;exitX=1;exitY=0.5;exitDx=0;exitDy=0;" edge="1" parent="1" source="SySOI2_HgFE6P1grrO_B-26">
          <mxGeometry width="50" height="50" relative="1" as="geometry">
            <mxPoint x="550" y="220" as="sourcePoint" />
            <mxPoint x="600" y="170" as="targetPoint" />
          </mxGeometry>
        </mxCell>
        <mxCell id="SySOI2_HgFE6P1grrO_B-29" value="" style="endArrow=none;html=1;rounded=0;exitX=1;exitY=0.5;exitDx=0;exitDy=0;" edge="1" parent="1" source="SySOI2_HgFE6P1grrO_B-1">
          <mxGeometry width="50" height="50" relative="1" as="geometry">
            <mxPoint x="330" y="220" as="sourcePoint" />
            <mxPoint x="380" y="170" as="targetPoint" />
          </mxGeometry>
        </mxCell>
        <mxCell id="SySOI2_HgFE6P1grrO_B-31" value="" style="endArrow=none;html=1;rounded=0;exitX=0.5;exitY=0;exitDx=0;exitDy=0;" edge="1" parent="1" source="SySOI2_HgFE6P1grrO_B-17">
          <mxGeometry width="50" height="50" relative="1" as="geometry">
            <mxPoint x="80" y="240" as="sourcePoint" />
            <mxPoint x="130" y="190" as="targetPoint" />
          </mxGeometry>
        </mxCell>
        <mxCell id="SySOI2_HgFE6P1grrO_B-32" value="nome_cliente" style="ellipse;whiteSpace=wrap;html=1;align=center;" vertex="1" parent="1">
          <mxGeometry x="727" y="370" width="100" height="40" as="geometry" />
        </mxCell>
        <mxCell id="SySOI2_HgFE6P1grrO_B-33" value="" style="endArrow=none;html=1;rounded=0;exitX=1;exitY=0.25;exitDx=0;exitDy=0;" edge="1" parent="1" source="SySOI2_HgFE6P1grrO_B-3">
          <mxGeometry width="50" height="50" relative="1" as="geometry">
            <mxPoint x="677" y="440" as="sourcePoint" />
            <mxPoint x="727" y="390" as="targetPoint" />
          </mxGeometry>
        </mxCell>
      </root>
    </mxGraphModel>
  </diagram>
</mxfile>
